# xmcd
#
# Track frame offsets: 
#        182
#        10680
#        19605
#        30692
#        43682
#        57252
#        70835
#        84662
#        95735
#        107607
#        119717
#        130347
#        140577
#        152282
#        164585
#        175057
#        186745
#        198205
#        210820
#        223185
#        234965
#        244192
#
# Disc length: 3427 seconds
#
# Revision: 5
# Processed by: cddbd v1.5.2PL0 Copyright (c) Steve Scherf et al.
# Submitted via: ExactAudioCopy v1.3
#
DISCID=330d6116
DTITLE=Various Artist - Rhythm And Blues Vol. 14 1961
DYEAR=1992
DGENRE=R&B
TTITLE0=Bobby Lewis - Tossin' And Turnin'
TTITLE1=Chris Kenner - I Like It Like That
TTITLE2=Marvelettes - Please Mr. Postman
TTITLE3=Dee Clark - Raindrops
TTITLE4=Ben E. King - Stand By Me
TTITLE5=Etta James - At Last
TTITLE6=Ike And Tina Turner - It's Gonna Work Out Fine
TTITLE7=Lee Dorsey - Ya Ya
TTITLE8=Little Junior Parker - Driving Wheel
TTITLE9=Bobby Bland - I Pity The Fool
TTITLE10=Carla Thomas - Gee Whiz
TTITLE11=Marcels - Blue Moon
TTITLE12=Ernie K-Doe - Mother-In-Law
TTITLE13=Shirelles - Will You Love Me Tomorrow
TTITLE14=Chuck Jackson - I Don't Want To Cry
TTITLE15=Jive Five - My True Story
TTITLE16=Maxine Brown - All In My Mind
TTITLE17=Miracles - Shop Around
TTITLE18=Jimmy Reed - Bright Lights Big City
TTITLE19=Freddy King - Hide Away
TTITLE20=Gladys Knight And The Pips - Every Beat Of My Heart
TTITLE21=Shep And The Limelites - Daddy's Home
EXTD=Time-Life Music RHD-14 OPCD-2662 YEAR: 1961
EXTT0=
EXTT1=
EXTT2=
EXTT3=
EXTT4=
EXTT5=
EXTT6=
EXTT7=
EXTT8=
EXTT9=
EXTT10=
EXTT11=
EXTT12=
EXTT13=
EXTT14=
EXTT15=
EXTT16=
EXTT17=
EXTT18=
EXTT19=
EXTT20=
EXTT21=
PLAYORDER=
